<?xml version="1.0"?>
<svg id="Layer_1" xmlns="http://www.w3.org/2000/svg" version="1.1" viewBox="0 0 2000 1451">
  
  <defs>
    
  </defs>
  <path class="st0" d="M991.16,880.43c-.01,7.14.03,13.91-.05,20.68-.08,6.45-1.95,7.87-7.97,10.09-5.48,2.01-10.9,1.72-16.41,1.78-8.67.1-17.35.08-26.03-.02-6.04-.07-11.31-1.93-14-7.86-.91-2.01-1.3-4.41-1.3-6.64-.08-36.77-.05-73.53-.05-110.3-.01-48.13-.1-96.27.06-144.4.02-4.85,1.28-9.76,2.48-14.51.33-1.29,2.46-2.72,3.97-3.01,4.85-.92,9.78-1.72,14.7-1.86,9.43-.28,18.87-.16,28.3-.06,10.73.11,14.68,3.56,15.96,12.88.17,1.25.63,2.46,1.1,4.21,2.97-2.19,5.45-4,7.9-5.83,7.41-5.54,15.31-10.24,24.36-12.35,5.6-1.3,11.4-1.86,17.14-2.38,23.93-2.16,45.91,3.54,65.29,17.7,12.53,9.15,22.17,21.05,29.54,34.8,9.31,17.36,13.03,36.09,13.53,55.47.46,17.78-2.24,35.26-8.76,51.86-7.91,20.16-20.53,36.84-38.76,48.95-12.25,8.14-25.57,13.9-40.17,15.56-19.94,2.26-38.72-1.87-55.76-12.83-3.65-2.35-7.1-4.98-10.7-7.41-1.04-.7-2.26-1.14-3.4-1.7-.43,1.42-1.22,2.84-1.23,4.27-.05,5.91.2,11.81.23,17.72.05,11.61.02,23.22.03,35.19M1131.84,791.93c2.06-4.59,4.15-9.17,6.18-13.77,3.55-8.05,6.18-16.35,6.7-25.2.06-1.08.05-2.35.61-3.17,2.46-3.59,1.97-7.61,1.98-11.56.01-5.8.05-11.61-.05-17.41-.03-1.66-.45-3.32-.78-4.96-.59-2.93-1.24-5.84-1.89-8.75-1.01-4.54-1.97-9.09-3.09-13.6-.6-2.43-1.26-4.89-2.28-7.16-2.01-4.44-4.12-8.85-6.51-13.1-2.59-4.61-5.01-9.49-8.47-13.4-7.42-8.37-14.71-17.14-24.78-22.5-7.91-4.21-15.94-8.58-24.44-11.16-7.2-2.18-15.13-2.14-22.76-2.63-5.66-.37-11.36-.05-17.04.02-1.31.02-2.69.11-3.92.5-4.33,1.38-8.73,2.63-12.87,4.46-4.58,2.02-9.11,4.3-13.27,7.06-4.57,3.04-8.66,6.81-13.03,10.16-2.41,1.85-3.72,1.3-4.19-1.64-.21-1.3-.04-2.67-.21-3.98-.35-2.59-.19-5.49-1.37-7.66-2.63-4.87-7.91-6.62-12.73-6.49-10.34.28-20.89-2.33-31.06,2.12-2.57,1.12-5.97.38-8.99.41-2.67.03-4.03,1.24-4.05,3.96-.01,2.66-.16,5.32-.16,7.98,0,87.17.02,174.34.04,261.52,0,6.45,1.58,7.73,8.17,7.26,2.36-.17,4.79.1,7.15.41,2.59.34,5.12,1.15,7.71,1.43,9.07.96,17.9-1.22,26.84-2.08,7.22-.7,8.44-1.46,8.45-8.66.01-24.79,0-49.57.01-74.36,0-1.81-.06-3.64.18-5.43.39-2.88,1.76-3.44,4.19-1.76,5.06,3.5,9.85,7.45,15.16,10.51,11.23,6.46,22.55,13,36.28,12.13.24-.02.5-.04.72.03,4.65,1.47,9.16,1.21,13.98.17,4.85-1.05,9.88-.97,14.89-1.99,7.67-1.56,14.29-5.24,20.69-8.86,12.19-6.9,23.01-15.84,30.83-27.83,2.3-3.53,4.58-7.08,7.18-11.04Z"></path>
  <path class="st0" d="M656.66,767.23c.22,17.88.52,35.4.6,52.92.02,4.92.11,10.23-3.79,13.94-2.03,1.93-4.99,3.77-7.66,3.98-9.5.71-19.06.85-28.6.91-5.06.03-10.13-.38-15.18-.85-5.42-.5-8.8-4.61-10.26-12.01-.21-1.04-.37-2.09-.69-3.89-1.83,1.23-3.37,2.06-4.65,3.17-9.58,8.27-20.6,14.23-32.65,17.36-13.32,3.46-26.97,4.18-40.77.96-30.36-7.08-52.8-24.47-68.47-51.04-6.82-11.57-10.43-24.16-12.76-37.41-2.49-14.13-2.47-28.1-.54-42.15,1.69-12.26,5.04-24.1,10.45-35.25,6.92-14.27,15.92-26.9,28.55-36.92,10.79-8.57,22.71-14.55,35.91-18.11,23.94-6.44,47.14-5.52,68.75,7.83,4.14,2.56,7.52,6.39,11.09,9.8.9.86,1.19,2.34,1.77,3.54.64-.4,1.28-.81,1.92-1.21.37-4.13.98-8.25,1.06-12.39.36-18,.53-36.01.85-54.01.04-2.52.29-5.08.79-7.55.63-3.1,2.46-4.85,5.96-4.33,1.9.28,3.85.3,5.78.3,26.72.01,53.44-.11,80.16.05,14.34.09,12.97,3.58,13.07,12.83.05,4.84.07,9.67,0,14.51-.06,4.4-1.89,7.08-6.31,7.36-7.93.5-15.96.87-23.86.2-9.84-.83-10.46-.76-10.46,8.94-.01,52.71-.02,105.43-.03,158.51M654.12,733.48c.05-16.44.12-32.89.15-49.33.02-12.09.02-24.17,0-36.26-.01-14.87-.14-29.74-.03-44.61.04-5.35.78-5.84,6.32-5.86,9.31-.03,18.62.02,27.93-.03,4.57-.02,6.62-2.01,6.73-6.63.11-4.71.05-9.43.04-14.15-.01-7.23-1.24-8.48-8.44-8.48-28.17-.01-56.35,0-84.52,0-1.09,0-2.39-.3-3.21.18-1.28.75-3.06,1.96-3.2,3.14-.96,8.21-1.99,16.45-2.18,24.7-.37,16.2-.17,32.41-.32,48.61-.02,2.07-.7,4.14-1.15,6.56-1.29-.69-1.69-.79-1.9-1.04-8.24-9.85-16.71-19.41-29.56-23.42-3.99-1.25-8.02-2.39-12.09-3.32-3.6-.82-7.26-1.49-10.93-1.82-2.58-.24-5.24.08-7.84.37-1.53.17-3.02,1.14-4.52,1.13-6.66-.08-13.18.6-19.54,2.63-3.76,1.2-7.86,1.81-11.2,3.73-8.22,4.72-16.64,9.04-24.16,15.11-6.9,5.57-12.3,12.13-17.23,19.26-1.84,2.66-3.66,5.38-5.06,8.28-2.9,6.04-5.7,12.15-8.17,18.38-2.24,5.65-4.92,11.36-5.73,17.28-1.21,8.88-.19,17.96-2.3,26.9-.72,3.05,1.4,6.68,1.79,10.1.67,5.76-1.08,11.86,2.55,17.22.36.53.13,1.44.31,2.13,1.03,3.93,1.7,8.03,3.25,11.75,2.53,6.08,5.2,12.19,8.65,17.76,3.97,6.42,8.12,13.06,13.53,18.19,8.78,8.34,18.16,16.2,29.53,21.17,8.05,3.52,16.26,7.37,24.89,7.87,14.3.82,28.74,1.98,42.7-4.15,9.78-4.3,19.15-8.93,27.49-15.62,1.59-1.28,3.55-2.08,5.34-3.1.53,1.89.96,3.82,1.61,5.67,1.37,3.87,1.66,8.88,6.57,9.95,6.05,1.32,12.27,2.05,18.46,2.48,5.9.4,11.87.42,17.76-.03,4.13-.31,8.21-1.53,12.23-2.66,1.1-.31,2.13-1.62,2.75-2.72,2.11-3.71,3.2-7.61,3.16-12.05-.29-28.17-.34-56.34-.48-85.24Z"></path>
  <path class="st0" d="M1164.03,824.56c.01-61.8.02-123.24.03-184.67,0-.97,0-1.94.04-2.9.38-8.38,2.01-11.03,10.26-11.53,14.33-.86,28.73-1.02,43.09-.81,6.8.09,10.72,5.14,11.09,12.07.07,1.36.34,2.71.62,4.92,1.56-1.22,2.48-1.89,3.34-2.62,11.21-9.52,23.95-15.44,38.58-17.76,12.13-1.92,24.13-1.76,36.03.68,13.75,2.82,26.39,8.33,37.68,16.92,19.27,14.66,31.8,33.65,38.34,56.92,4.95,17.61,6.48,35.47,4.19,53.48-3.36,26.45-12.87,50.4-32.6,69.09-11.58,10.97-24.98,19.18-40.81,23.08-13.18,3.25-26.28,4.28-39.78,2.22-16.39-2.51-30.55-9.3-42.88-20.21-.43-.38-1.02-.58-2.38-1.34-.13,2.59-.35,4.63-.32,6.67.18,11.72.5,23.43.61,35.15.12,11.85-.36,23.72.2,35.55.36,7.65-7.8,14.52-14.19,14.35-13.28-.36-26.58-.35-39.85-.86-8.47-.33-11.28-3.66-11.28-12.2-.02-25.28-.01-50.55-.02-76.19M1224.39,632.58c-2.55-4.5-6.85-6.86-11.57-6.66-10.48.44-21.15-2.15-31.46,2.14-2.61,1.09-6.01.15-8.99.55-1.34.18-3.4,1.1-3.66,2.09-1.14,4.23-2.44,8.61-2.44,12.94-.13,84.65-.09,169.3-.07,253.96,0,1.45-.25,3,.17,4.33.83,2.67,1.23,6.08,4.64,6.68,6,1.06,12.05,2.07,18.12,2.37,7.96.4,15.99.53,23.93-.04,7.28-.53,13.9-4.94,13.72-14.02-.47-23.21-.16-46.43-.14-69.65,0-1.93-.06-3.9.25-5.79.2-1.21.78-2.9,1.67-3.28.79-.34,2.5.55,3.32,1.37,6.88,6.91,14.84,12.02,23.93,15.64,8.86,3.52,17.78,6.37,27.45,6.15,4.59-.1,9.22.3,13.78-.12,5.34-.5,10.89-.91,15.87-2.7,7.53-2.71,14.84-6.22,21.87-10.07,8.01-4.39,16-9.24,21.58-16.64,5.26-6.98,10.84-13.7,15.01-21.6,5.58-10.56,8.92-21.84,12.12-33.09,2.16-7.61,2.49-15.92,2.46-23.92-.02-8.61-1.4-17.22-2.23-25.82-.07-.69-.51-1.34-.73-2.03-1.32-4.12-2.74-8.21-3.9-12.37-1.78-6.35-3.46-12.68-7.31-18.22-3.85-5.53-7.06-11.53-11.23-16.79-4.15-5.24-8.56-10.62-13.9-14.5-7.82-5.68-15.87-11.32-25.35-14.28-8.44-2.63-16.57-6.46-25.77-5.78-3.01.22-6.05.07-9.07-.02-10.03-.31-19.62,1.16-29.23,4.53-9.69,3.39-17.56,9.12-25.37,15.28-.95.75-2.51,1.66-3.35,1.34-.87-.33-1.4-2-1.76-3.19-.82-2.73-1.44-5.51-2.36-8.79Z"></path>
  <path class="st0" d="M1744.21,624.44c8.39,1.43,11.74,5.08,11.74,12.87.02,39.65-.04,79.29-.03,118.94,0,16.32.1,32.64.13,48.96.01,7.84,0,15.68-.07,23.52-.05,5.18-2.19,7.87-7.15,9.64-8.26,2.95-16.78,3.03-25.33,2.28-6.09-.54-12.33-.76-18.19-2.31-10.01-2.66-10.56-3.32-12.1-13.14-.12-.79-.4-1.56-.76-2.94-1.24,1.01-2.17,1.67-3,2.44-8.36,7.83-17.99,13.57-29.17,16.04-9.37,2.07-18.94,4.31-28.46,4.49-18.49.35-35.78-4.7-51.25-15.26-15.95-10.89-27.97-25.18-36.23-42.51-5.15-10.81-8.58-22.22-10.63-34.1-2.76-16.04-2.82-32.06.47-47.89,4.04-19.48,11.76-37.35,24.82-52.81,12.23-14.48,27.35-24.39,45.21-30.02,6.36-2,13.22-3.02,19.89-3.25,9.11-.31,18.24-.75,27.36,1.73,10.99,3,21.16,7.38,30.39,13.96,3.58,2.56,7.04,5.29,11.07,8.33.32-2.78.52-4.99.84-7.18,1.27-8.65,4.22-11.59,13.12-11.78,12.33-.27,24.66-.05,37.32-.01M1753.37,738.56c0-33.62.01-67.24.02-100.86,0-7.66-4.24-11.9-12.08-11.93-9.68-.04-19.37-.34-29.02.17-4.15.22-8.23,2.11-12.28,3.42-.8.26-1.87,1.28-1.93,2.03-.37,4.45-4.79,8.47-1.41,13.4.48.7.12,2.52-.52,3.25-.39.45-2.26.16-3.06-.38-1.98-1.35-3.64-3.15-5.58-4.57-4.91-3.6-9.74-7.36-14.91-10.54-3.45-2.12-7.65-3-11.13-5.07-8.66-5.16-18.57-4.75-27.9-5.87-9.16-1.1-18.57,1.2-27.55,3.88-5.71,1.71-11.59,3.33-16.78,6.13-5.88,3.17-11.3,7.34-16.5,11.58-8.57,6.98-15.77,15.27-21,25.07-4.69,8.79-8.89,17.72-11.76,27.39-3,10.13-5.04,20.16-4.58,30.74.3,6.88.11,13.78.17,20.68.01,1.33-.06,2.71.29,3.97,2.11,7.75,4.43,15.44,6.5,23.2,3.01,11.27,8.76,21.31,15.76,30.25,10.37,13.25,22.52,24.71,38.86,30.94,6.41,2.44,12.97,5.17,19.52,5.49,15.25.73,30.57,1.87,45.55-4.06,10.37-4.11,20.07-8.57,27.73-16.84.94-1.01,3.08-2.29,3.75-1.89,1.49.88,2.85,2.59,3.44,4.25.62,1.74.33,3.82.35,5.75.03,3.02,1.52,4.64,4.26,6.01,4.1,2.06,8.3,2.21,12.66,2.24,4.43.03,8.94-.49,13.02,2.18.88.58,2.9.46,3.76-.18,3.48-2.61,7.37-2.06,11.18-1.85,7.5.42,11.13-2.88,11.13-10.52.02-28.9.02-57.81.03-87.44Z"></path>
  <path class="st0" d="M200.62,788.7c-6.96-15.41-12.59-30.92-12.58-47.84,0-10.48-.33-21.07,1.05-31.4,1.17-8.74,4.08-17.36,7.11-25.7,5.17-14.23,13.2-26.87,24.02-37.49,11.56-11.34,25.1-19.82,40.82-23.91,28.42-7.4,55.06-3.39,79.09,14.25,2.71,1.99,5.22,4.27,7.83,6.4.15.12.47.04,1.27.09.08-1.08.18-2.16.23-3.25.55-10.99,3.24-15.38,14.45-15.49,11.36-.11,22.73-.1,34.09,0,8.85.07,14.04,5.14,14.05,13.93.06,51.38.03,102.77.02,154.15,0,11.71,0,23.42-.06,35.13-.04,7.16-1.32,8.75-8.01,11.02-9.85,3.34-19.99,2.9-30.09,2.21-5.13-.35-10.19-1.66-15.28-2.53-5.53-.96-7.94-3.48-8.69-9.05-.27-2-.62-3.99-1-6.45-32.01,25.29-66.54,29.95-103.02,13.06-20.75-9.6-35.02-26.51-45.3-47.11M248.45,833.45c1.31.61,2.69,1.11,3.92,1.86,6.64,4.02,14.22,5.1,21.59,5.77,9.12.83,18.36.23,27.55.17,1.54-.01,3.13-.28,4.6-.73,4-1.22,7.88-2.95,11.95-3.83,6.6-1.43,12.45-4.12,17.66-8.39,3.82-3.13,7.71-6.17,11.62-9.19,2.68-2.07,4.16-1.44,4.46,1.95.22,2.52-.28,5.18.34,7.58.48,1.87,1.84,4.33,3.42,4.94,3.73,1.42,7.78,2.17,11.77,2.67,3.58.45,7.46-.53,10.82.45,4.75,1.38,9.03,1.38,13.71-.05,2.68-.82,5.77-.17,8.66-.41,4.2-.35,7.36-2.86,7.43-6,.36-16.47-.77-33,2.23-49.35,0-46.92,0-93.85,0-140.77,0-8.3-5.89-14.3-14.18-14.34-9.07-.05-18.16-.31-27.2.16-4.32.23-8.57,1.89-12.81,3.08-.78.22-1.36,1.28-1.97,2-3.01,3.53-1.72,7.83-2.17,11.83-.16,1.42-.68,3.5-1.64,3.94-1.04.48-2.86-.48-4.22-1.07-.84-.37-1.53-1.18-2.19-1.88-8-8.47-18.46-13.25-28.84-17.5-7.38-3.03-15.79-4.4-23.82-4.75-8.3-.36-16.69,1.41-25.03,2.27-.35.04-.67.25-1.01.38-3.58,1.32-7.26,2.43-10.73,4.01-5.42,2.48-10.86,5-15.98,8.03-3.9,2.31-7.64,5.11-10.89,8.28-6,5.86-12.73,11.45-17.06,18.45-5.55,8.98-11.19,18.22-13.57,28.86-2.06,9.21-5.1,18.27-6.41,27.58-1.83,12.98.55,25.92,2.71,38.75.59,3.53,1.6,7.03,2.79,10.41,1.83,5.19,3.57,10.48,6.11,15.34,4.21,8.06,8.24,16.4,13.75,23.54,8.52,11.05,19.21,19.94,32.64,25.98Z"></path>
  <path class="st0" d="M1477.16,768.65c3.93,10.36,12.2,13.02,21.87,13.2,5.92.11,11.85-.07,17.78,0,4.78.06,5.63.79,6.63,5.39,3.52,16.18,7.01,32.36,10.53,48.54.93,4.28-.65,6.58-5.05,6.69-6.28.16-12.58,0-18.86.11-11.23.2-22.54,1.43-33.68.54-20.23-1.6-38.58-7.98-50.52-26.05-5.41-8.19-7.67-17.65-10.04-27.04-4.98-19.69-2.24-39.72-2.69-59.6-.25-10.98.46-21.98.51-32.98.03-5.67-.46-11.34-.63-17.01-.08-2.68-1.28-4.01-4.01-3.98-3.02.02-6.05.02-9.07-.09-7.28-.26-10.84-3.88-10.87-11.14-.05-10.03.02-20.06-.02-30.09-.03-6.42,2.59-9.69,10.22-10.64,3.81-.48,7.73-.14,11.6-.22,4.31-.09,5.06-.81,4.98-5.17-.18-9.9-.76-19.81-.52-29.7.11-4.45,1.14-9.15,2.9-13.23,2.64-6.13,7.58-9.9,14.68-9.92,7.94-.02,15.89-.14,23.83.06,5.35.14,10.15,2.21,14.06,5.88,3.41,3.2,5.07,7.33,5.09,12.03.06,11.25.04,22.49.1,33.74.03,5.94.46,6.37,6.46,6.39,11.97.03,23.94-.04,35.92,0,5.92.02,8,1.42,9.05,7.2,2.23,12.21,2.44,24.56.62,36.81-.76,5.12-3.71,8.27-9.74,8.13-12.09-.27-24.18-.09-36.28-.02-4.58.02-5.24.71-5.29,5.3-.26,24.05-.56,48.1-.68,72.15-.02,4.81.67,9.62,1.14,14.72M1527.4,818.68c-.39-1.99-.81-3.98-1.14-5.98-.27-1.66-.29-3.37-.65-5-1.24-5.57-2.88-11.07-3.79-16.7-.81-5.02-1.12-5.47-6.3-5.78-9.07-.55-18.16,1.29-27.24-1.84-7.62-2.63-14.98-10.51-14.99-18.63-.04-28.05-.03-56.1,0-84.15,0-5.59.55-6.13,6.33-6.15,11.97-.04,23.95-.32,35.91.1,6.83.24,9.84-3.1,10.48-10.16.84-9.35.43-18.85.12-28.27-.23-6.9-4.27-10.34-11.09-10.35-11.97-.02-23.94-.02-35.91-.08-5.37-.02-5.83-.49-5.84-5.8-.03-11.97-.07-23.94.02-35.91.03-4.19-1.64-7.36-4.63-10.17-4.87-4.55-11.26-4.43-17.12-5.48-4.69-.84-9.64-.2-14.48-.15-4.93.04-9.05,2.13-12.7,5.28-4.99,4.31-6.71,10.16-6.98,16.37-.32,7.36-.13,14.75-.04,22.12.02,1.65.22,3.42.86,4.91,1.21,2.8,2.24,5.7-.1,8.09-3.46,3.52-8.61,4.18-11.97,2.25-1.1-.63-2.43-1.3-3.62-1.24-6.79.3-11.48,5.13-11.54,11.87-.08,8.34-.09,16.69,0,25.03.07,7.21,4.33,11.42,11.51,11.55,2.9.05,5.82-.14,8.69.17,1.25.13,3.11.98,3.45,1.95,1.14,3.23,2.29,6.64,2.41,10.02.33,8.87-1.06,17.69-1.64,26.49-1.2,18.42-.35,36.97-.32,55.47,0,1.32.05,2.67.3,3.97,1.29,6.67,2.49,13.36,4.05,19.97,1.04,4.41,2.54,8.72,3.99,13.03,2.52,7.51,7.8,13.23,12.72,19.16.67.81,1.52,1.54,2.42,2.11,5.24,3.34,10.18,7.22,16.57,8.42,5.97,1.12,11.84,3.49,17.82,3.73,17.38.71,34.79.61,52.18.86,5.78.08,7.71-2.94,5.43-8.33-.83-1.96-1.26-4.09-1.74-6.18-.46-1.99-.74-4.01-1.39-6.55Z"></path>
  <path class="st0" d="M721.84,828.39c-20.55-14.99-32.94-35.22-40.35-58.94-4.04-12.93-5.79-26.13-5.73-39.61.09-22.71,5.53-44.12,17.2-63.57,13.26-22.11,32.23-37.58,57.41-44.14,27.4-7.15,53.15-2.79,76.6,13.46,2.37,1.64,4.41,3.76,6.64,5.61.86.72,1.83,1.3,3.44,2.42.22-2.32.49-3.81.48-5.3-.07-10.23,4.78-13.71,14.07-13.92,11.84-.27,23.7-.06,35.54-.04.6,0,1.21.04,1.81.1,6.09.68,10.44,5.02,10.93,11.12.33,4.09.58,8.2.59,12.3.03,58.64-.18,117.28.16,175.92.07,12.17-4.79,15.08-15.97,16.37-9.04,1.04-18.31.55-27.44.1-4.5-.22-8.98-1.72-13.37-2.95-3.8-1.07-5.55-3.81-5.73-7.86-.1-2.15-1.14-4.25-1.76-6.38-1.67,1.22-3.41,2.37-5.01,3.69-7.91,6.52-16.71,11.41-26.54,14.34-10.93,3.26-22.1,4.74-33.53,4.36-14.51-.49-28.04-4.37-40.65-11.5-2.94-1.66-5.72-3.61-8.78-5.58M735.56,630.81c-3.76,2.29-7.61,4.45-11.26,6.91-4.16,2.8-8.95,5.2-12.04,8.95-6.6,8.01-14.78,14.89-18.72,24.99-2.35,6.03-5.6,11.71-7.97,17.73-1.52,3.87-2.39,8.04-3.18,12.15-1.5,7.86-2.98,15.74-4,23.67-1.18,9.19.85,18.23,2.2,27.26.76,5.08,1.19,10.32,2.83,15.13,2.49,7.25,5.42,14.45,9.06,21.19,4.09,7.57,8.58,15.09,13.97,21.76,6.69,8.27,15.08,14.93,24.5,20.05,5.48,2.98,10.96,6.46,16.88,7.99,7.23,1.87,14.91,2.18,22.42,2.69,5.66.39,11.37.22,17.04-.06,2.93-.14,5.85-.93,8.71-1.66,3.47-.89,6.82-2.33,10.32-2.98,6.06-1.13,11.37-3.72,16.17-7.43,4.28-3.31,8.46-6.73,12.69-10.09,2.61-2.07,4.22-1.55,4.66,1.73.34,2.5-.09,5.14.46,7.58.41,1.83,1.43,4.28,2.88,4.96,3.16,1.5,6.73,2.41,10.22,2.91,6.24.89,12.86-1.32,18.77,2.36.33.21,1.06.17,1.39-.06,4.47-3.07,9.57-1.97,14.45-2.17,6.83-.27,10.35-3.75,10.35-10.58,0-62.03,0-124.07,0-186.1,0-7.4-6.41-14.23-13.92-13.81-12.16.68-24.45-2.16-36.53,2.22-5.61,2.03-7.6,3.09-7.77,9.2-.07,2.42.04,4.86-.3,7.24-.38,2.65-2.17,3.38-4.47,2.01-.92-.55-1.76-1.29-2.53-2.05-8.57-8.48-19.08-14.08-30.11-18.2-7.63-2.85-16.05-4.35-24.21-4.74-8.06-.38-16.22,1.39-24.33,2.22-.12.01-.24.05-.35.09-5.93,2.26-11.85,4.53-18.32,6.94Z"></path>
  <path d="M1131.68,792.14c-2.44,3.75-4.72,7.3-7.02,10.83-7.82,11.99-18.65,20.93-30.83,27.83-6.39,3.62-13.01,7.3-20.69,8.86-5.01,1.02-10.04.94-14.89,1.99-4.82,1.04-9.33,1.29-13.98-.17-.22-.07-.48-.05-.72-.03-13.73.87-25.05-5.67-36.28-12.13-5.31-3.06-10.1-7.01-15.16-10.51-2.43-1.68-3.81-1.13-4.19,1.76-.24,1.79-.18,3.62-.18,5.43,0,24.79,0,49.57-.01,74.36,0,7.2-1.23,7.96-8.45,8.66-8.94.86-17.77,3.04-26.84,2.08-2.59-.28-5.12-1.09-7.71-1.43-2.36-.31-4.79-.58-7.15-.41-6.59.47-8.17-.81-8.17-7.26-.02-87.17-.03-174.34-.04-261.52,0-2.66.14-5.32.16-7.98.01-2.72,1.38-3.94,4.05-3.96,3.02-.03,6.43.72,8.99-.41,10.17-4.46,20.72-1.85,31.06-2.12,4.82-.13,10.11,1.62,12.73,6.49,1.17,2.17,1.02,5.08,1.37,7.66.18,1.31,0,2.67.21,3.98.46,2.93,1.77,3.48,4.19,1.64,4.38-3.35,8.46-7.12,13.03-10.16,4.16-2.76,8.7-5.04,13.27-7.06,4.14-1.83,8.54-3.08,12.87-4.46,1.24-.4,2.61-.48,3.92-.5,5.68-.08,11.39-.39,17.04-.02,7.63.5,15.56.45,22.76,2.63,8.5,2.58,16.54,6.95,24.44,11.16,10.08,5.37,17.37,14.13,24.78,22.5,3.46,3.91,5.87,8.79,8.47,13.4,2.39,4.24,4.5,8.66,6.51,13.1,1.02,2.27,1.68,4.73,2.28,7.16,1.12,4.51,2.08,9.06,3.09,13.6.65,2.91,1.3,5.83,1.89,8.75.33,1.64.76,3.3.78,4.96.1,5.8.06,11.61.05,17.41,0,3.96.48,7.97-1.98,11.56-.56.82-.55,2.09-.61,3.17-.53,8.86-3.16,17.16-6.7,25.2-2.03,4.6-4.12,9.18-6.34,13.99M1052.72,783.14c2.19-.89,4.32-2.23,6.59-2.57,5.33-.8,8.9-4.54,13.02-7.3,4.98-3.35,6.82-9.14,10.08-13.84,4.13-5.95,5.44-12.55,6.09-19.22.88-8.94.84-17.85-1.83-26.83-2.41-8.1-6.15-15.3-11.63-21.24-7.39-8-17.22-12.62-27.87-14.55-9.71-1.76-19.64-.52-28.84,2.6-11.14,3.77-19.61,11.43-25.05,22.08-.54,1.07-.7,2.39-1.4,3.31-4.68,6.13-5.23,13.65-6.09,20.73-.78,6.42-.07,12.98,1.37,19.64,1.75,8.07,5.2,15,9.59,21.49,7.34,10.88,18.79,15.8,31.15,17.46,7.93,1.06,16.4,1.97,24.84-1.77Z"></path>
  <path d="M654.12,733.85c.13,28.53.19,56.71.48,84.87.05,4.44-1.05,8.34-3.16,12.05-.62,1.1-1.65,2.41-2.75,2.72-4.01,1.13-8.1,2.35-12.23,2.66-5.89.44-11.86.43-17.76.03-6.19-.42-12.41-1.16-18.46-2.48-4.91-1.07-5.2-6.08-6.57-9.95-.65-1.85-1.08-3.78-1.61-5.67-1.79,1.02-3.76,1.83-5.34,3.1-8.33,6.69-17.71,11.32-27.49,15.62-13.96,6.13-28.39,4.97-42.7,4.15-8.62-.5-16.84-4.35-24.89-7.87-11.37-4.97-20.75-12.82-29.53-21.17-5.41-5.14-9.55-11.77-13.53-18.19-3.45-5.58-6.12-11.69-8.65-17.76-1.55-3.72-2.22-7.81-3.25-11.75-.18-.69.05-1.6-.31-2.13-3.63-5.35-1.88-11.45-2.55-17.22-.4-3.42-2.51-7.05-1.79-10.1,2.11-8.94,1.09-18.02,2.3-26.9.81-5.91,3.49-11.63,5.73-17.28,2.47-6.23,5.27-12.33,8.17-18.38,1.39-2.9,3.22-5.62,5.06-8.28,4.93-7.13,10.33-13.69,17.23-19.26,7.51-6.06,15.93-10.39,24.16-15.11,3.35-1.92,7.44-2.53,11.2-3.73,6.36-2.03,12.88-2.71,19.54-2.63,1.5.02,2.99-.95,4.52-1.13,2.6-.29,5.26-.6,7.84-.37,3.67.34,7.33,1,10.93,1.82,4.07.93,8.1,2.07,12.09,3.32,12.84,4.01,21.32,13.57,29.56,23.42.21.25.61.34,1.9,1.04.44-2.42,1.13-4.49,1.15-6.56.15-16.2-.05-32.41.32-48.61.19-8.25,1.21-16.49,2.18-24.7.14-1.18,1.92-2.39,3.2-3.14.82-.48,2.13-.18,3.21-.18,28.17,0,56.35-.01,84.52,0,7.2,0,8.42,1.25,8.44,8.48,0,4.72.07,9.43-.04,14.15-.11,4.62-2.15,6.6-6.73,6.63-9.31.05-18.62,0-27.93.03-5.54.02-6.28.52-6.32,5.86-.11,14.87.01,29.74.03,44.61.01,12.09.02,24.17,0,36.26-.03,16.44-.1,32.89-.15,49.69M545.35,677.24c-5.5.15-10.87.74-16.36,1.72-7.2,1.29-12.6,5.05-17.33,9.47-6.31,5.89-13.07,11.62-15.92,20.58-2.43,7.65-5.86,15.05-5.56,23.21.18,4.85,1.33,9.69,2.33,14.48,1.49,7.13,4.4,13.71,9.11,19.28,5.63,6.64,12.44,11.33,20.68,14.9,9.15,3.97,18.24,4.89,27.72,4.31,4.36-.27,8.88-1.17,12.91-2.81,9.37-3.81,17.41-9.68,23.33-18.03,1.98-2.8,3.59-5.95,4.84-9.15,1.3-3.33,1.67-7.01,2.95-10.35,3.3-8.6,2.8-17.7.95-26.03-2.23-10.05-6.6-19.57-14.73-27.15-9.83-9.16-20.81-14.35-34.94-14.44Z"></path>
  <path d="M1224.5,632.84c.81,3.02,1.43,5.8,2.25,8.53.36,1.18.88,2.86,1.76,3.19.84.32,2.4-.59,3.35-1.34,7.81-6.17,15.68-11.89,25.37-15.28,9.61-3.36,19.2-4.83,29.23-4.53,3.02.09,6.06.24,9.07.02,9.2-.69,17.33,3.15,25.77,5.78,9.48,2.96,17.52,8.6,25.35,14.28,5.34,3.88,9.75,9.26,13.9,14.5,4.17,5.26,7.38,11.27,11.23,16.79,3.86,5.54,5.54,11.87,7.31,18.22,1.16,4.16,2.58,8.25,3.9,12.37.22.68.66,1.33.73,2.03.83,8.61,2.2,17.21,2.23,25.82.02,7.99-.3,16.31-2.46,23.92-3.2,11.25-6.53,22.54-12.12,33.09-4.18,7.9-9.75,14.62-15.01,21.6-5.58,7.41-13.57,12.25-21.58,16.64-7.03,3.85-14.34,7.36-21.87,10.07-4.97,1.79-10.52,2.2-15.87,2.7-4.56.43-9.18.02-13.78.12-9.67.22-18.59-2.62-27.45-6.15-9.08-3.61-17.05-8.72-23.93-15.64-.82-.83-2.54-1.71-3.32-1.37-.88.38-1.47,2.07-1.67,3.28-.31,1.89-.25,3.85-.25,5.79-.02,23.22-.33,46.44.14,69.65.18,9.08-6.43,13.49-13.72,14.02-7.94.57-15.97.44-23.93.04-6.07-.3-12.12-1.31-18.12-2.37-3.4-.6-3.81-4.01-4.64-6.68-.41-1.33-.17-2.88-.17-4.33-.01-84.65-.06-169.3.07-253.96,0-4.33,1.3-8.71,2.44-12.94.27-.98,2.33-1.91,3.66-2.09,2.98-.39,6.38.54,8.99-.55,10.31-4.29,20.99-1.71,31.46-2.14,4.72-.2,9.02,2.17,11.68,6.92M1291,783.26c8.04-.14,14.25-4.78,19.68-9.6,4.58-4.06,7.78-9.85,10.99-15.24,4.1-6.88,5.86-14.63,6.21-22.59.26-5.98-.42-11.81-1.82-17.79-1.79-7.63-4.4-14.71-8.86-20.91-7.69-10.69-18.38-17.26-31.33-19.56-9.5-1.69-19.27-.6-28.09,2.64-9.91,3.63-19.48,8.5-25.02,18.87-4.71,8.81-8.9,17.49-8.46,27.76.12,2.77.14,5.57,0,8.34-.56,10.57,3.61,19.65,8.83,28.42,2.61,4.38,6.36,7.44,10.21,10.78,4.59,3.98,9.78,5.99,14.94,8.24,6.22,2.71,13.02,3.35,19.81,2.66,4.13-.42,8.22-1.25,12.92-2.01Z"></path>
  <path d="M1753.37,738.93c0,29.27,0,58.17-.03,87.08,0,7.64-3.63,10.94-11.13,10.52-3.81-.21-7.7-.76-11.18,1.85-.86.64-2.88.76-3.76.18-4.08-2.68-8.59-2.15-13.02-2.18-4.36-.03-8.56-.18-12.66-2.24-2.74-1.37-4.23-2.99-4.26-6.01-.02-1.93.27-4.01-.35-5.75-.59-1.66-1.95-3.37-3.44-4.25-.67-.4-2.82.88-3.75,1.89-7.67,8.27-17.37,12.74-27.73,16.84-14.98,5.93-30.3,4.79-45.55,4.06-6.55-.31-13.11-3.04-19.52-5.49-16.34-6.23-28.49-17.68-38.86-30.94-6.99-8.94-12.75-18.98-15.76-30.25-2.07-7.76-4.39-15.45-6.5-23.2-.34-1.26-.27-2.64-.29-3.97-.06-6.89.13-13.8-.17-20.68-.47-10.58,1.57-20.61,4.58-30.74,2.87-9.67,7.08-18.61,11.76-27.39,5.23-9.81,12.43-18.09,21-25.07,5.2-4.24,10.62-8.41,16.5-11.58,5.19-2.8,11.08-4.42,16.78-6.13,8.97-2.68,18.38-4.98,27.55-3.88,9.34,1.12,19.24.72,27.9,5.87,3.48,2.07,7.69,2.95,11.13,5.07,5.17,3.18,10,6.94,14.91,10.54,1.94,1.42,3.6,3.22,5.58,4.57.8.55,2.67.84,3.06.38.63-.73,1-2.55.52-3.25-3.38-4.93,1.03-8.95,1.41-13.4.06-.75,1.12-1.77,1.93-2.03,4.05-1.31,8.13-3.2,12.28-3.42,9.65-.51,19.34-.21,29.02-.17,7.84.04,12.08,4.27,12.08,11.93,0,33.62-.01,67.24-.02,101.23M1593.83,741.32c1.58,5.47,2.69,11.14,4.85,16.37,4.84,11.76,13.85,19.8,25.05,25.3,3.36,1.65,7.46,1.71,11,3.08,6.39,2.48,12.98,2.06,19.25.79,7.94-1.6,15.86-4.2,22.33-9.39,4.09-3.28,8.43-6.86,11-11.28,4.04-6.92,8.92-13.88,8.09-22.68-.02-.23.07-.48.16-.7,4.26-10.26.94-20.06-2.14-29.74-1.39-4.38-3.61-8.6-6.03-12.54-2.3-3.75-4.75-7.88-8.21-10.33-4.89-3.48-9.07-8.09-15.48-9.62-4.85-1.15-9.31-3.7-14.59-3.36-5.38.35-10.65.21-16.03,1.92-7.46,2.38-14.22,5.73-20.31,10.47-4.07,3.18-7.27,7.07-10.26,11.44-5.41,7.92-8.66,16.22-8.7,25.78-.02,4.59,0,9.18.01,14.47Z"></path>
  <path d="M248.22,833.31c-13.19-5.91-23.88-14.8-32.41-25.84-5.51-7.14-9.54-15.48-13.75-23.54-2.54-4.85-4.28-10.15-6.11-15.34-1.19-3.38-2.2-6.88-2.79-10.41-2.15-12.83-4.54-25.77-2.71-38.75,1.31-9.31,4.36-18.36,6.41-27.58,2.38-10.64,8.02-19.89,13.57-28.86,4.33-7,11.06-12.58,17.06-18.45,3.24-3.17,6.98-5.97,10.89-8.28,5.12-3.03,10.56-5.55,15.98-8.03,3.46-1.58,7.15-2.69,10.73-4.01.34-.13.67-.34,1.01-.38,8.35-.86,16.74-2.63,25.03-2.27,8.03.35,16.44,1.72,23.82,4.75,10.38,4.26,20.84,9.03,28.84,17.5.66.7,1.35,1.51,2.19,1.88,1.36.59,3.18,1.55,4.22,1.07.97-.44,1.48-2.52,1.64-3.94.45-4-.84-8.3,2.17-11.83.61-.72,1.19-1.78,1.97-2,4.23-1.19,8.49-2.85,12.81-3.08,9.05-.48,18.13-.21,27.2-.16,8.29.05,14.18,6.05,14.18,14.34,0,46.92,0,93.85,0,140.77-3.01,16.35-1.87,32.88-2.23,49.35-.07,3.15-3.23,5.65-7.43,6-2.89.24-5.98-.41-8.66.41-4.68,1.43-8.97,1.44-13.71.05-3.36-.98-7.24,0-10.82-.45-3.99-.5-8.04-1.25-11.77-2.67-1.58-.6-2.94-3.07-3.42-4.94-.62-2.39-.12-5.05-.34-7.58-.3-3.4-1.78-4.02-4.46-1.95-3.91,3.02-7.8,6.06-11.62,9.19-5.2,4.27-11.06,6.96-17.66,8.39-4.07.88-7.95,2.61-11.95,3.83-1.48.45-3.06.72-4.6.73-9.19.07-18.44.67-27.55-.17-7.37-.67-14.95-1.75-21.59-5.77-1.23-.75-2.61-1.24-4.16-1.99M339.98,769.44c7.92-7.45,10.56-17.24,11.89-27.5.46-3.57-.04-7.25.14-10.87.45-8.6-1.45-16.71-5.05-24.42-1.16-2.48-2.92-4.69-4.46-6.99-4.11-6.16-8.98-11.49-15.47-15.35-4.4-2.61-9.03-4.18-13.88-5.7-6.51-2.04-13.03-1.94-19.29-.68-6.13,1.23-12.06,3.89-17.79,6.55-7.4,3.44-12.63,9.65-17.26,16.09-2.93,4.08-4.85,8.95-6.83,13.64-1.48,3.49-2.7,7.18-3.39,10.9-1.7,9.21.25,18.38,3.19,26.83,3.89,11.17,9.96,21.18,21.13,27.38,7.17,3.98,14.74,6.22,22.5,7.96,7.97,1.79,15.68-1.35,23.48-2.55.45-.07.85-.44,1.29-.65,7.34-3.59,14.71-7.13,19.8-14.64Z"></path>
  <path d="M1527.55,818.94c.51,2.28.79,4.3,1.24,6.29.48,2.09.91,4.23,1.74,6.18,2.29,5.39.35,8.41-5.43,8.33-17.4-.25-34.81-.15-52.18-.86-5.98-.24-11.85-2.61-17.82-3.73-6.39-1.2-11.32-5.08-16.57-8.42-.89-.57-1.74-1.29-2.42-2.11-4.92-5.93-10.2-11.65-12.72-19.16-1.45-4.31-2.95-8.62-3.99-13.03-1.56-6.61-2.76-13.3-4.05-19.97-.25-1.29-.3-2.64-.3-3.97-.03-18.5-.87-37.05.32-55.47.57-8.8,1.97-17.62,1.64-26.49-.13-3.38-1.27-6.79-2.41-10.02-.34-.96-2.2-1.81-3.45-1.95-2.87-.31-5.79-.12-8.69-.17-7.18-.12-11.44-4.33-11.51-11.55-.08-8.34-.08-16.69,0-25.03.07-6.73,4.76-11.57,11.54-11.87,1.19-.05,2.52.61,3.62,1.24,3.36,1.93,8.51,1.27,11.97-2.25,2.34-2.39,1.31-5.29.1-8.09-.64-1.49-.85-3.26-.86-4.91-.09-7.37-.28-14.76.04-22.12.27-6.21,1.99-12.06,6.98-16.37,3.65-3.15,7.76-5.24,12.7-5.28,4.84-.04,9.79-.68,14.48.15,5.86,1.05,12.26.93,17.12,5.48,2.99,2.8,4.66,5.98,4.63,10.17-.09,11.97-.05,23.94-.02,35.91.01,5.31.47,5.77,5.84,5.8,11.97.06,23.94.06,35.91.08,6.82,0,10.87,3.45,11.09,10.35.31,9.42.72,18.91-.12,28.27-.63,7.07-3.65,10.4-10.48,10.16-11.96-.42-23.94-.13-35.91-.1-5.77.02-6.32.55-6.33,6.15-.02,28.05-.03,56.1,0,84.15.01,8.12,7.38,16,14.99,18.63,9.09,3.13,18.18,1.29,27.24,1.84,5.18.31,5.49.76,6.3,5.78.91,5.62,2.55,11.12,3.79,16.7.36,1.63.38,3.34.65,5,.33,2,.76,3.98,1.29,6.24Z"></path>
  <path d="M735.83,630.73c6.2-2.34,12.12-4.6,18.05-6.87.11-.04.23-.08.35-.09,8.12-.83,16.28-2.6,24.33-2.22,8.15.39,16.58,1.9,24.21,4.74,11.03,4.11,21.53,9.71,30.11,18.2.77.76,1.6,1.5,2.53,2.05,2.3,1.37,4.1.64,4.47-2.01.34-2.38.23-4.82.3-7.24.17-6.12,2.16-7.17,7.77-9.2,12.08-4.38,24.37-1.53,36.53-2.22,7.5-.42,13.92,6.41,13.92,13.81,0,62.03,0,124.07,0,186.1,0,6.83-3.52,10.31-10.35,10.58-4.88.19-9.98-.9-14.45,2.17-.33.23-1.06.27-1.39.06-5.92-3.68-12.54-1.47-18.77-2.36-3.49-.5-7.05-1.41-10.22-2.91-1.45-.69-2.47-3.13-2.88-4.96-.55-2.44-.12-5.07-.46-7.58-.45-3.28-2.05-3.8-4.66-1.73-4.23,3.36-8.42,6.79-12.69,10.09-4.81,3.72-10.11,6.3-16.17,7.43-3.5.65-6.85,2.1-10.32,2.98-2.86.73-5.79,1.51-8.71,1.66-5.67.28-11.39.45-17.04.06-7.52-.52-15.2-.82-22.42-2.69-5.92-1.53-11.4-5.01-16.88-7.99-9.41-5.12-17.81-11.78-24.5-20.05-5.39-6.67-9.89-14.19-13.97-21.76-3.64-6.74-6.57-13.94-9.06-21.19-1.65-4.8-2.07-10.05-2.83-15.13-1.35-9.03-3.38-18.07-2.2-27.26,1.02-7.93,2.5-15.81,4-23.67.78-4.11,1.66-8.28,3.18-12.15,2.37-6.02,5.61-11.7,7.97-17.73,3.94-10.1,12.12-16.97,18.72-24.99,3.09-3.75,7.88-6.15,12.04-8.95,3.65-2.46,7.5-4.61,11.53-6.98M840.16,726.31c-.86-3.56-2.36-7.1-2.46-10.69-.24-8.43-5.59-14.29-10.16-20.21-3.56-4.62-8.73-8.21-13.69-11.48-3.49-2.3-7.83-3.35-11.82-4.87-10.08-3.84-19.8-1.74-29.44,1.81-2.02.74-4.39.86-6.11,2.01-4.07,2.72-7.9,5.81-11.74,8.87-10.35,8.25-15.02,19.86-17.71,32.15-2.05,9.39-.59,19.18,2.62,28.06,3.29,9.11,7.95,17.95,16.18,23.94,2.88,2.09,6.43,3.25,9.35,5.29,6.27,4.38,13.65,4.96,20.75,6.17,5.3.9,10.62-.76,15.97-1.68,8.93-1.54,16.27-5.92,22.24-11.76,4.86-4.75,10.36-9.66,11.93-17.27,1.27-6.14,4.69-11.76,4.15-18.39-.3-3.72-.06-7.49-.06-11.94Z"></path>
  <path class="st0" d="M1052.43,783.19c-8.15,3.7-16.62,2.79-24.54,1.72-12.36-1.66-23.81-6.58-31.15-17.46-4.38-6.5-7.84-13.42-9.59-21.49-1.44-6.66-2.16-13.22-1.37-19.64.86-7.08,1.41-14.6,6.09-20.73.7-.92.86-2.24,1.4-3.31,5.44-10.66,13.91-18.31,25.05-22.08,9.21-3.12,19.14-4.36,28.84-2.6,10.65,1.93,20.49,6.55,27.87,14.55,5.49,5.94,9.22,13.14,11.63,21.24,2.67,8.98,2.71,17.89,1.83,26.83-.65,6.67-1.96,13.27-6.09,19.22-3.26,4.7-5.1,10.48-10.08,13.84-4.11,2.77-7.68,6.5-13.02,7.3-2.27.34-4.4,1.68-6.88,2.61M1080.79,756.17c5.03-11.24,8.09-22.78,4.83-35.14-1.04-3.96-2.09-7.95-3.59-11.75-5.9-14.99-17.09-24.43-32.65-27.31-9.11-1.68-18.59-.69-27.91,1.85-10.65,2.9-17.3,10.44-23.32,18.43-7.5,9.96-9.85,21.78-9.18,34.26.71,13.12,5.36,24.48,14.6,33.77,7.86,7.9,17.81,11.01,28.74,12.09,18.53,1.82,39.48-6.6,48.47-26.18Z"></path>
  <path class="st0" d="M545.71,677.23c13.76.09,24.74,5.28,34.57,14.44,8.14,7.58,12.5,17.1,14.73,27.15,1.85,8.33,2.35,17.43-.95,26.03-1.28,3.34-1.65,7.02-2.95,10.35-1.25,3.2-2.86,6.35-4.84,9.15-5.91,8.35-13.96,14.22-23.33,18.03-4.03,1.64-8.55,2.54-12.91,2.81-9.48.58-18.58-.34-27.72-4.31-8.24-3.57-15.05-8.26-20.68-14.9-4.72-5.57-7.63-12.15-9.11-19.28-1-4.79-2.15-9.63-2.33-14.48-.3-8.17,3.13-15.57,5.56-23.21,2.85-8.96,9.61-14.69,15.92-20.58,4.74-4.42,10.14-8.18,17.33-9.47,5.49-.98,10.86-1.58,16.72-1.72M538.25,680.82c-5.53.53-10.99,1.18-15.98,4.04-11.28,6.47-19.94,15.38-24.56,27.56-5.87,15.5-5.67,31.01,2.27,45.9,9.19,17.23,32.21,26.74,50.71,24.02,15.67-2.3,28.28-9.8,35.54-23.95,8.82-17.2,10.46-35.1.76-52.79-5.71-10.42-13.96-17.91-25.25-22.22-7.49-2.86-15.08-2.86-23.49-2.57Z"></path>
  <path class="st0" d="M1290.71,783.32c-4.4.71-8.49,1.53-12.62,1.95-6.79.69-13.6.06-19.81-2.66-5.15-2.25-10.35-4.27-14.94-8.24-3.85-3.33-7.61-6.4-10.21-10.78-5.22-8.76-9.38-17.84-8.83-28.42.15-2.77.12-5.56,0-8.34-.43-10.26,3.75-18.95,8.46-27.76,5.54-10.37,15.11-15.24,25.02-18.87,8.82-3.23,18.59-4.32,28.09-2.64,12.95,2.3,23.64,8.87,31.33,19.56,4.46,6.2,7.07,13.28,8.86,20.91,1.4,5.99,2.09,11.81,1.82,17.79-.35,7.96-2.11,15.71-6.21,22.59-3.21,5.38-6.41,11.17-10.99,15.24-5.43,4.83-11.64,9.46-19.98,9.67M1316.84,701.9c-7.34-11.96-17.82-19.1-31.9-20.52-9.32-.94-18.57-.39-27.4,2.91-6.58,2.45-12.94,5.79-17.29,11.39-11.05,14.25-15.6,30.33-11.79,48.28,2.92,13.72,9.79,24.84,22.11,32.08,11.37,6.68,23.6,7.46,36.4,5.45,10.04-1.58,18.39-6.06,24.97-13.46,15.53-17.48,17.21-45.83,4.89-66.12Z"></path>
  <path class="st0" d="M1593.82,740.98c0-4.94-.03-9.53,0-14.12.03-9.56,3.29-17.86,8.7-25.78,2.99-4.37,6.19-8.27,10.26-11.44,6.09-4.75,12.85-8.1,20.31-10.47,5.38-1.71,10.65-1.57,16.03-1.92,5.28-.34,9.74,2.2,14.59,3.36,6.4,1.52,10.59,6.14,15.48,9.62,3.45,2.46,5.91,6.58,8.21,10.33,2.42,3.94,4.64,8.15,6.03,12.54,3.08,9.67,6.4,19.47,2.14,29.74-.09.22-.18.47-.16.7.84,8.8-4.05,15.76-8.09,22.68-2.57,4.41-6.91,8-11,11.28-6.47,5.18-14.38,7.79-22.33,9.39-6.27,1.26-12.86,1.69-19.25-.79-3.54-1.37-7.64-1.43-11-3.08-11.21-5.5-20.21-13.54-25.05-25.3-2.16-5.23-3.26-10.9-4.85-16.72M1683.5,699.53c-4.32-4-8.19-8.72-13.1-11.78-4.78-2.98-10.5-5.35-16.03-5.98-7.04-.81-14.23-.63-21.43,1.65-9.55,3.02-17.85,7.7-24,15.32-12.69,15.74-16.77,33.49-10.06,53.03,5.74,16.7,22.82,30.88,41.4,32.25,14.62,1.08,27.62-2.63,38.37-12.69,12.88-12.05,15.71-27.73,14.85-44.44-.51-9.9-4.21-18.77-10-27.37Z"></path>
  <path class="st0" d="M339.81,769.63c-4.92,7.31-12.29,10.86-19.63,14.45-.43.21-.84.58-1.29.65-7.8,1.2-15.5,4.34-23.48,2.55-7.76-1.74-15.33-3.99-22.5-7.96-11.17-6.2-17.25-16.2-21.13-27.38-2.94-8.46-4.89-17.62-3.19-26.83.69-3.72,1.91-7.41,3.39-10.9,1.98-4.68,3.9-9.55,6.83-13.64,4.62-6.44,9.85-12.65,17.26-16.09,5.73-2.66,11.66-5.32,17.79-6.55,6.26-1.26,12.78-1.35,19.29.68,4.85,1.52,9.48,3.09,13.88,5.7,6.49,3.86,11.36,9.18,15.47,15.35,1.53,2.3,3.3,4.51,4.46,6.99,3.6,7.71,5.5,15.82,5.05,24.42-.19,3.62.32,7.3-.14,10.87-1.33,10.26-3.97,20.05-12.07,27.7M337.79,767.9c1.78-2.58,3.99-4.96,5.27-7.77,5.64-12.44,8.31-25.19,5.24-39.03-2.34-10.52-6.87-19.5-14.37-27.06-6.64-6.69-14.53-11.48-23.98-12.39-7.53-.72-15.1-.31-22.54,2.13-11.15,3.65-19.98,10.27-26.42,19.82-7.09,10.53-9.16,22.28-8.84,35.08.52,21.1,16.88,39.54,36.75,44.12,18.45,4.25,35.26-.02,48.89-14.91Z"></path>
  <path class="st0" d="M840.16,726.66c0,4.1-.24,7.86.06,11.59.53,6.63-2.88,12.25-4.15,18.39-1.57,7.61-7.07,12.52-11.93,17.27-5.97,5.84-13.31,10.23-22.24,11.76-5.34.92-10.67,2.59-15.97,1.68-7.09-1.21-14.48-1.79-20.75-6.17-2.92-2.04-6.47-3.2-9.35-5.29-8.23-5.99-12.89-14.83-16.18-23.94-3.21-8.89-4.67-18.68-2.62-28.06,2.69-12.29,7.36-23.9,17.71-32.15,3.84-3.06,7.67-6.15,11.74-8.87,1.72-1.14,4.09-1.26,6.11-2.01,9.64-3.55,19.37-5.65,29.44-1.81,3.99,1.52,8.33,2.57,11.82,4.87,4.96,3.27,10.13,6.85,13.69,11.48,4.56,5.92,9.91,11.78,10.16,20.21.1,3.58,1.6,7.13,2.47,11.04M837.61,737.9c.16-3.01.88-6.11.39-9.01-1.57-9.3-3.92-18.31-9.13-26.51-13.38-21.11-35.8-25.87-56.61-17.4-18.52,7.54-28.69,22.33-31.77,42.1-4.02,25.79,13.31,53.4,41.42,56.61,14.9,1.7,28.27-1.49,39.75-11.55,10.17-8.92,14-20.78,15.95-34.23Z"></path>
  <path class="st0" d="M547.13,753.37c-8.98,1.75-16.2-1.04-21.52-7.8-4.96-6.3-5.16-13.82-2.38-20.99,3.32-8.54,12.48-13.34,21.75-12.33,8.96.98,16.92,8.35,18.7,17.31,2.22,11.19-5.14,21.96-16.54,23.81M527.65,743.44c5.3,7.38,14.95,11.4,23.69,6.36,7.16-4.13,12.34-16.88,8.26-24.04-7.17-12.58-18.66-14.21-29.57-6.1-6,4.46-8.66,14.72-2.37,23.79Z"></path>
  <path d="M527.48,743.23c-6.12-8.86-3.46-19.11,2.54-23.57,10.91-8.11,22.41-6.47,29.57,6.1,4.08,7.15-1.1,19.91-8.26,24.04-8.74,5.04-18.39,1.03-23.86-6.57Z"></path>
</svg>